<?xml version="1.0" encoding="UTF-8" standalone="no"?>
<svg
    viewBox="0 0 1024 1024"
    version="1.1"
    id="svg5"
    sodipodi:docname="proximus.svg"
    inkscape:version="1.2.2 (b0a8486541, 2022-12-01)"
    xmlns:inkscape="http://www.inkscape.org/namespaces/inkscape"
    xmlns:sodipodi="http://sodipodi.sourceforge.net/DTD/sodipodi-0.dtd"
    xmlns="http://www.w3.org/2000/svg"
    xmlns:svg="http://www.w3.org/2000/svg">
   <defs
       id="defs9" />
   <sodipodi:namedview
       id="namedview7"
       pagecolor="#ffffff"
       bordercolor="#999999"
       borderopacity="1"
       inkscape:showpageshadow="0"
       inkscape:pageopacity="0"
       inkscape:pagecheckerboard="0"
       inkscape:deskcolor="#d1d1d1"
       showgrid="false"
       inkscape:zoom="0.45214844"
       inkscape:cx="272.03456"
       inkscape:cy="325.11447"
       inkscape:window-width="1272"
       inkscape:window-height="1394"
       inkscape:window-x="0"
       inkscape:window-y="0"
       inkscape:window-maximized="1"
       inkscape:current-layer="svg5" />
   <circle
       id="Background (CHANGE THE COLOR)"
       cx="512"
       cy="512"
       r="512"
       style="fill:#5c2d91;fill-opacity:1"
       inkscape:label="background" />
   <path
       id="path318"
       style="fill:#ffffff;fill-opacity:1;fill-rule:nonzero;stroke:none;stroke-width:3.61042"
       d="m 619.21519,619.1994 c 25.25496,7.56024 46.69728,17.76331 61.99829,30.05322 l 1.10119,0.84484 c 8.1415,6.14494 20.77078,20.2906 21.5037,30.77168 0.14081,1.89548 0.48741,6.90313 -7.76963,15.16381 l -0.008,0.008 -0.008,0.008 c -8.26427,8.26067 -13.26833,7.91044 -15.1674,7.76964 -10.47386,-0.7329 -24.62312,-13.35858 -30.76809,-21.50371 l -0.84844,-1.10119 c -12.29016,-15.30074 -22.4896,-36.73948 -30.04984,-61.99804 l 0.0217,0.008 c 0,0 -0.003,-0.0135 -0.008,-0.0217 M 541.2563,541.25278 c -9.61818,-0.56683 -19.37717,-0.89537 -29.29863,-0.90983 -9.88176,0.0135 -19.61186,0.343 -29.19755,0.90623 0.56323,-9.61818 0.89177,-19.38077 0.90623,-29.29863 -0.0135,-9.88536 -0.343,-19.61546 -0.90623,-29.20115 9.61819,0.56323 19.38078,0.89177 29.29863,0.90983 9.88537,-0.019 19.61186,-0.3466 29.20115,-0.90983 -0.56683,9.61818 -0.89539,19.38077 -0.90983,29.29863 0.0135,9.88536 0.343,19.61546 0.90623,29.20475 m -166.47687,139.94745 -0.84484,1.10119 c -6.14494,8.14513 -20.29423,20.77441 -30.76809,21.50371 -1.89547,0.1408 -6.90673,0.49463 -15.1674,-7.76604 l -0.008,-0.003 -0.0108,-0.0108 c -8.25705,-8.26067 -7.90684,-13.27196 -7.76604,-15.16743 0.73293,-10.47746 13.35861,-24.62672 21.50373,-30.77169 l 1.10117,-0.84484 c 15.301,-12.28988 36.74335,-22.49295 61.99828,-30.04959 l -0.008,0.019 0.0135,-0.003 c -7.55301,25.25496 -17.75608,46.69367 -30.04599,61.99468 M 404.80128,404.82411 C 379.54632,397.26747 358.1076,387.0644 342.80299,374.77449 l -1.09756,-0.84844 c -8.14876,-6.14494 -20.77441,-20.2906 -21.50373,-30.76808 -0.14081,-1.89548 -0.49461,-6.90674 7.76603,-15.16741 l 0.008,-0.008 0.008,-0.008 c 8.26064,-8.26067 13.27192,-7.91047 15.1674,-7.76604 10.47745,0.7293 24.62311,13.35498 30.77168,21.50371 l 0.84484,1.09756 c 12.28991,15.30461 22.49299,36.74335 30.04959,61.99829 0,0 -0.0135,-0.003 -0.0217,-0.008 0.003,0.008 0.008,0.0135 0.008,0.0217 m 244.42964,-62.02357 0.84844,-1.10116 c 6.14494,-8.14513 20.29423,-20.77441 30.76808,-21.50374 1.89908,-0.1408 6.90674,-0.49101 15.16741,7.76604 l 0.008,0.008 0.008,0.008 c 8.26067,8.26428 7.91047,13.27193 7.76967,15.17101 -0.72933,10.47385 -13.35498,24.62314 -21.50374,30.76808 l -1.10116,0.84484 c -15.30101,12.28991 -36.74335,22.49298 -61.99828,30.05322 0.003,-0.008 0.008,-0.0135 0.008,-0.0217 l -0.0135,0.003 c 7.55301,-25.25496 17.75608,-46.69368 30.04239,-61.99469 m 71.64896,82.32141 c 6.74789,-5.09071 43.62479,-34.7504 46.85252,-77.01768 1.26726,-16.56827 -2.28178,-41.39718 -26.35613,-65.48596 -24.08878,-24.07435 -48.91769,-27.62338 -65.48595,-26.35252 -42.26729,3.22413 -71.93058,40.10103 -77.01768,46.84892 -22.76374,28.54407 -39.55946,68.27683 -49.18487,114.67806 -12.27185,1.10839 -24.86141,1.71134 -37.63149,1.7294 -12.80619,-0.0189 -25.42826,-0.62101 -37.72538,-1.73663 -9.62541,-46.38317 -26.42473,-86.12316 -49.18847,-114.67083 -5.09431,-6.74789 -34.754,-43.62479 -77.02128,-46.84892 -16.57547,-1.26366 -41.39718,2.27817 -65.49679,26.36696 -24.08518,24.09961 -27.63061,48.92132 -26.36695,65.49318 3.22409,42.27091 40.10102,71.93058 46.84891,77.02128 28.54767,22.76737 68.28767,39.56306 114.67084,49.18848 1.11922,12.30074 1.71857,24.92279 1.7366,37.72897 -0.019,12.77009 -0.61738,25.35967 -1.72937,37.63152 -46.40124,9.62538 -86.13402,26.4175 -114.67807,49.18487 -6.74789,5.08708 -43.62482,34.75037 -46.84891,77.02128 -1.27089,16.56464 2.28177,41.38995 26.35612,65.47873 24.08518,24.07435 48.91409,27.62701 65.48236,26.35612 42.26728,-3.2205 71.93057,-40.10103 77.01765,-46.84532 22.76376,-28.54764 39.55946,-68.28403 49.18487,-114.68166 12.27185,-1.11199 24.8614,-1.71134 37.63512,-1.733 12.80258,0.0217 25.42463,0.62461 37.72174,1.73663 9.62541,46.38677 26.42474,86.12676 49.1885,114.67803 5.09431,6.74429 34.75397,43.62482 77.02128,46.84532 16.57547,1.26366 41.39718,-2.28177 65.49679,-26.37056 24.08878,-24.09601 27.63061,-48.91409 26.37056,-65.48958 -3.22773,-42.27089 -40.10463,-71.93418 -46.85252,-77.02488 -28.54767,-22.76377 -68.28766,-39.56309 -114.67446,-49.18848 -1.11199,-12.29714 -1.71495,-24.91919 -1.73301,-37.72177 0.019,-12.77368 0.61739,-25.36327 1.72941,-37.63512 46.40123,-9.62538 86.13399,-26.42111 114.67806,-49.18484"
       inkscape:label="logo" />
</svg>
